<mxfile host="app.diagrams.net" modified="2023-09-27T08:26:59.738Z" agent="Mozilla/5.0 (Macintosh; Intel Mac OS X 11_2_3) AppleWebKit/537.36 (KHTML, like Gecko) Chrome/88.0.4324.192 Safari/537.36" version="21.8.2" etag="7lHG7Gop_5Hw1CadPf5P" type="github">
  <diagram name="第 1 页" id="aC6o_5EZMbAkr_GhsHZY">
    <mxGraphModel>
      <root>
        <mxCell id="0" />
        <mxCell id="1" parent="0" />
      </root>
    </mxGraphModel>
  </diagram>
</mxfile>
